<?xml version="1.0" encoding="utf-8"?><svg viewBox="35.0379 345.499 328.7288 154.501" width="328.729" height="154.501" xmlns="http://www.w3.org/2000/svg"><g id="SVGRepo_iconCarrier" transform="matrix(0.15187200903892517, 0, 0, 0.15187200903892517, 27.480789184570312, 422.24151611328125)" style=""><path style="fill:#97aab2;" d="M426.503,0H85.497C65.76,0,49.76,16,49.76,35.737v440.526C49.76,496,65.76,512,85.497,512h341.006 c19.737,0,35.737-16,35.737-35.737V35.737C462.239,16,446.24,0,426.503,0z"/><rect x="108.019" y="58.263" style="fill:#6e07f3;" width="295.951" height="395.476"/><polygon style="fill:#4d04aa;" points="403.977,58.263 142.96,58.263 108.023,58.263 108.023,97.169 108.023,453.737 142.96,453.737 142.96,97.169 403.977,97.169 "/><g><circle style="fill:#6e07f3;" cx="255.995" cy="29.632" r="8.75"/><circle style="fill:#6e07f3;" cx="255.995" cy="483.045" r="15.082"/></g></g><g id="g-3" transform="matrix(0.15334400534629822, 0, 0, 0.15334400534629822, 296.54150390625, 421.4881896972656)" style=""><g><path style="fill:#97aab2;" d="M331.609,417.742H297.58c-9.884,0-17.897-8.013-17.897-17.897s8.013-17.897,17.897-17.897h34.029 c39.145,0,70.992-31.846,70.992-70.991s-31.847-70.992-70.992-70.992H297.58c-9.884,0-17.897-8.013-17.897-17.897 c0-9.884,8.013-17.897,17.897-17.897h34.029c58.882,0,106.786,47.903,106.786,106.785S390.491,417.742,331.609,417.742z"/><path style="fill:#97aab2;" d="M268.111,511.998H140.292c-11.832,0-21.763-8.919-23.027-20.684L73.728,189.17 c-1.037-7.192,4.542-13.633,11.81-13.633h237.327c7.266,0,12.845,6.44,11.81,13.633l-43.537,302.145 C289.872,503.08,279.943,511.998,268.111,511.998z"/></g><path style="fill:#b3c1c9;" d="M204.201,511.998h-63.909c-11.832,0-21.763-8.919-23.027-20.684L73.728,189.17 c-1.037-7.192,4.542-13.633,11.81-13.633h118.663V511.998z"/><path style="fill:#5be9b9;" d="M163.157,151.231c-4.455,0-8.876-1.904-11.95-5.593c-12.377-14.853-28.108-50.622,0.951-79.679 c4.41-4.41,9.833-11.857,6.025-25.56c-2.417-8.706-7.307-15.31-7.354-15.373c-5.235-6.806-3.961-16.564,2.843-21.8 s16.564-3.961,21.8,2.844c12.113,15.746,27.423,53.123-1.329,81.875c-6.932,6.932-8.867,14.559-6.09,24.001 c2.286,7.771,6.994,13.735,7.041,13.79c5.496,6.596,4.605,16.397-1.991,21.894C170.196,150.049,166.666,151.231,163.157,151.231z"/><path style="fill:#5be9b9;" d="M245.328,151.231c-4.455,0-8.876-1.904-11.95-5.593C221,130.784,205.27,95.015,234.329,65.958 c4.41-4.41,9.833-11.857,6.025-25.56c-2.417-8.706-7.307-15.31-7.354-15.373c-5.235-6.806-3.961-16.564,2.843-21.8 c6.806-5.235,16.565-3.961,21.8,2.844c12.113,15.746,27.423,53.123-1.329,81.875c-6.932,6.932-8.867,14.559-6.09,24.001 c2.285,7.771,6.994,13.735,7.039,13.79c5.496,6.596,4.605,16.397-1.991,21.894C252.365,150.049,248.836,151.231,245.328,151.231z"/></g><polygon style="fill: rgb(151, 170, 178);" points="233.397 499.999 174.536 499.999 181.875 463.238 226.046 463.227"/><g transform="matrix(0.3449540138244629, 0, 0, 0.3449540138244629, 115.68081665039062, 334.46173095703125)" style=""><path style="fill:#B3C1C9;" d="M511.883,383.909c0,5.905-4.781,10.653-10.67,10.653H10.654C4.78,394.561,0,389.814,0,383.908&#10;&#9;&#9;V42.651c0-5.889,4.78-10.653,10.654-10.653h490.559c5.889,0,10.67,4.764,10.67,10.653V383.909z"/><path style="fill:#B3C1C9;" d="M341.251,479.885H170.618c-5.874,0-10.654-4.779-10.654-10.653c0-5.905,4.78-10.686,10.654-10.686&#10;&#9;&#9;h170.633c5.889,0,10.669,4.78,10.669,10.686C351.92,475.107,347.139,479.885,341.251,479.885z"/></g><path style="fill: rgb(77, 4, 170);" d="M 288.577 345.499 L 119.356 345.499 C 117.33 345.499 115.681 347.142 115.681 349.174 L 115.681 448.495 L 292.257 448.495 L 292.257 349.174 C 292.257 347.142 290.608 345.499 288.577 345.499 Z"/><path style="fill: rgb(67, 74, 84);" d="M 207.644 459.531 C 207.644 461.568 206.001 463.217 203.969 463.217 C 201.938 463.217 200.289 461.568 200.289 459.531 C 200.289 457.504 201.938 455.856 203.969 455.856 C 206.001 455.856 207.644 457.504 207.644 459.531 Z"/><path style="fill: rgb(91, 233, 185);" d="M 244.433 360.21 L 134.073 360.21 C 132.041 360.21 130.392 361.859 130.392 363.89 C 130.392 365.922 132.041 367.57 134.073 367.57 L 244.433 367.57 C 246.464 367.57 248.113 365.922 248.113 363.89 C 248.113 361.859 246.464 360.21 244.433 360.21 Z"/><path style="fill: rgb(91, 233, 185);" d="M 134.073 382.282 L 192.934 382.282 C 194.965 382.282 196.608 380.638 196.608 378.607 C 196.608 376.57 194.965 374.926 192.934 374.926 L 134.073 374.926 C 132.041 374.926 130.392 376.57 130.392 378.607 C 130.392 380.638 132.041 382.282 134.073 382.282 Z"/><path style="fill: rgb(91, 233, 185);" d="M 134.073 396.998 L 215.005 396.998 C 217.037 396.998 218.68 395.349 218.68 393.317 C 218.68 391.286 217.037 389.642 215.005 389.642 L 134.073 389.642 C 132.041 389.642 130.392 391.286 130.392 393.317 C 130.392 395.349 132.041 396.998 134.073 396.998 Z"/><path style="fill: rgb(91, 233, 185);" d="M 134.073 411.71 L 185.572 411.714 C 187.609 411.714 189.252 410.066 189.252 408.035 C 189.252 406.003 187.609 404.354 185.572 404.354 L 134.073 404.354 C 132.041 404.354 130.392 406.003 130.392 408.035 C 130.392 410.065 132.041 411.71 134.073 411.71 Z"/><path style="fill: rgb(91, 233, 185);" d="M 229.716 419.07 L 134.073 419.07 C 132.041 419.07 130.392 420.719 130.392 422.744 C 130.392 424.781 132.041 426.426 134.073 426.426 L 229.716 426.426 C 231.753 426.426 233.397 424.781 233.397 422.75 C 233.397 420.719 231.753 419.07 229.716 419.07 Z"/><path style="fill: rgb(91, 233, 185);" d="M 163.501 433.783 L 134.073 433.783 C 132.041 433.783 130.392 435.433 130.392 437.459 C 130.392 439.496 132.041 441.145 134.073 441.145 L 163.501 441.145 C 165.538 441.145 167.181 439.496 167.181 437.459 C 167.181 435.433 165.537 433.783 163.501 433.783 Z"/></svg>